<svg xmlns="http://www.w3.org/2000/svg" width="42.32" height="47.64" viewBox="0 0 42.32 47.64">
  <g id="atom" transform="translate(-27.921)">
    <g id="Grupo_7" data-name="Grupo 7" transform="translate(27.921)">
      <g id="Grupo_6" data-name="Grupo 6">
        <path id="Caminho_9" data-name="Caminho 9" d="M66.53,26.418a47.62,47.62,0,0,0-8.858-7.563c-.148-1.993-.384-3.921-.7-5.735a34.057,34.057,0,0,1,3.527-.922c3.817-.766,6.537-.456,7.279.829.779,1.347-.5,4.1-3.344,7.188a1.117,1.117,0,0,0,1.644,1.513c3.688-4.006,4.979-7.494,3.636-9.819-1.3-2.252-4.638-2.91-9.655-1.9A47.608,47.608,0,0,0,49.077,13.9c-1.794-.866-3.576-1.623-5.3-2.252,1.281-5.769,3.365-9.411,5.3-9.411,1.526,0,3.246,2.412,4.49,6.294A1.117,1.117,0,1,0,55.7,7.847C54.054,2.714,51.765,0,49.08,0c-3.708,0-6.3,5.195-7.667,12v0a1.089,1.089,0,0,0-.053.264,57.69,57.69,0,0,0-.866,6.587,57.727,57.727,0,0,0-4.623,3.483,34.155,34.155,0,0,1-2.562-2.594c-2.572-2.921-3.664-5.433-2.922-6.718.777-1.345,3.793-1.614,7.873-.7a1.117,1.117,0,1,0,.487-2.181c-5.3-1.183-8.956-.557-10.3,1.766-1.3,2.252-.2,5.472,3.179,9.312a47.607,47.607,0,0,0,8.858,7.562c.148,1.993.384,3.921.7,5.735a34.006,34.006,0,0,1-3.527.922c-3.815.766-6.537.456-7.279-.829-.786-1.361.522-4.143,3.412-7.261a1.118,1.118,0,0,0-1.639-1.52c-3.744,4.04-5.061,7.555-3.708,9.9.9,1.566,2.795,2.362,5.55,2.362a21.083,21.083,0,0,0,4.1-.459,47.611,47.611,0,0,0,10.978-3.89c1.793.866,3.575,1.623,5.3,2.252-1.281,5.769-3.365,9.411-5.3,9.411-1.521,0-3.239-2.4-4.482-6.266a1.117,1.117,0,1,0-2.127.684c1.644,5.114,3.93,7.817,6.609,7.817,3.7,0,6.3-5.184,7.663-11.982a.2.2,0,0,0,.009-.021,1.12,1.12,0,0,0,.053-.292,57.633,57.633,0,0,0,.861-6.562A57.628,57.628,0,0,0,62.291,25.3a34.149,34.149,0,0,1,2.562,2.594c2.571,2.921,3.663,5.433,2.921,6.718-.774,1.341-3.78,1.613-7.843.71a1.118,1.118,0,0,0-.485,2.182,21.721,21.721,0,0,0,4.655.577c2.774,0,4.711-.8,5.609-2.35C71.009,33.478,69.91,30.258,66.53,26.418Zm-28.953-2.6c.868-.718,1.8-1.428,2.761-2.126Q40.3,22.759,40.3,23.82c0,.715.015,1.427.038,2.137Q38.882,24.9,37.577,23.821Zm17.255-9.964c.187,1.11.338,2.268.461,3.453q-.9-.555-1.823-1.092c-.62-.357-1.244-.7-1.869-1.036C52.694,14.692,53.774,14.251,54.831,13.857Zm-11.488.007c1.05.391,2.123.837,3.205,1.322q-.929.5-1.856,1.033c-.616.356-1.222.723-1.822,1.095C43,16.109,43.157,14.958,43.343,13.864ZM43.33,33.783c-.187-1.11-.339-2.268-.46-3.453q.9.555,1.823,1.092c.619.357,1.244.7,1.869,1.036C45.467,32.948,44.387,33.389,43.33,33.783Zm11.488-.006c-1.05-.392-2.123-.838-3.2-1.322q.929-.5,1.857-1.033c.615-.356,1.221-.723,1.821-1.095C55.165,31.531,55,32.682,54.817,33.777Zm.7-6.242c-1.025.672-2.081,1.326-3.163,1.951S50.171,30.7,49.085,31.25c-1.095-.552-2.191-1.139-3.275-1.765s-2.144-1.281-3.162-1.947c-.069-1.224-.109-2.467-.109-3.719,0-1.274.038-2.513.108-3.714,1.024-.672,2.08-1.326,3.163-1.952s2.181-1.217,3.267-1.765c1.095.552,2.191,1.139,3.276,1.765s2.144,1.28,3.161,1.947c.07,1.224.109,2.467.109,3.719C55.622,25.095,55.583,26.333,55.515,27.535Zm2.308-1.589q.035-1.064.035-2.126c0-.715-.015-1.427-.037-2.137q1.458,1.053,2.762,2.134C59.713,24.535,58.79,25.247,57.823,25.946Z" transform="translate(-27.921)"/>
      </g>
    </g>
    <g id="Grupo_9" data-name="Grupo 9" transform="translate(45.356 20.096)">
      <g id="Grupo_8" data-name="Grupo 8" transform="translate(0)">
        <path id="Caminho_10" data-name="Caminho 10" d="M214.636,210.916a3.724,3.724,0,1,0,3.724,3.724A3.728,3.728,0,0,0,214.636,210.916Z" transform="translate(-210.912 -210.916)"/>
      </g>
    </g>
  </g>
</svg>
