<svg xmlns="http://www.w3.org/2000/svg" width="48.859" height="46.497" viewBox="0 0 48.859 46.497">
  <g id="box" transform="translate(0 0.001)">
    <path id="Caminho_20" data-name="Caminho 20" d="M43.427,16.472l5.153-5.153a.954.954,0,0,0-.215-1.511l-6.195-3.4a.954.954,0,1,0-.918,1.673l5.08,2.789L41.909,15.29,26,6.557l4.422-4.422L34.9,4.59a.954.954,0,1,0,.918-1.673l-5.1-2.8a.954.954,0,0,0-1.134.162L24.43,5.432,19.276.279A.955.955,0,0,0,18.143.117L.5,9.808A.954.954,0,0,0,.28,11.319l5.153,5.153L.28,21.624A.954.954,0,0,0,.5,23.135l5.333,2.928v9.788a.955.955,0,0,0,.5.837l17.647,9.69a.954.954,0,0,0,.918,0l17.647-9.69a.955.955,0,0,0,.5-.837V26.063l5.333-2.928a.954.954,0,0,0,.215-1.511Zm-19,8.6-15.665-8.6,15.665-8.6,15.665,8.6Zm-6-22.938,4.421,4.422L6.95,15.29,2.529,10.869ZM6.951,17.652l15.9,8.733-4.422,4.422L2.529,22.074ZM41.123,35.287,25.384,43.929V34.174a.954.954,0,1,0-1.909,0v9.755L7.736,35.287V27.112l10.406,5.714a.954.954,0,0,0,1.134-.162l5.153-5.153,5.153,5.153a.954.954,0,0,0,1.134.162l10.406-5.714Zm-10.7-4.479L26,26.385l15.9-8.733,4.422,4.422Zm0,0" transform="translate(0 0)"/>
    <path id="Caminho_21" data-name="Caminho 21" d="M395.755,50.084a.955.955,0,1,0-.675-.28A.963.963,0,0,0,395.755,50.084Zm0,0" transform="translate(-357.126 -43.579)"/>
    <path id="Caminho_22" data-name="Caminho 22" d="M246.954,314.926a.955.955,0,1,0,.675.28A.961.961,0,0,0,246.954,314.926Zm0,0" transform="translate(-222.525 -284.874)"/>
  </g>
</svg>
