<svg xmlns="http://www.w3.org/2000/svg" width="19.872" height="19.872" viewBox="0 0 19.872 19.872">
  <path id="calendar" d="M17.388,2.484H16.56V.828A.828.828,0,0,0,15.732,0H14.9a.828.828,0,0,0-.828.828V2.484H5.8V.828A.828.828,0,0,0,4.968,0H4.14a.828.828,0,0,0-.828.828V2.484H2.484A2.487,2.487,0,0,0,0,4.968v12.42a2.487,2.487,0,0,0,2.484,2.484h14.9a2.487,2.487,0,0,0,2.484-2.484V4.968a2.487,2.487,0,0,0-2.484-2.484Zm.828,14.9a.829.829,0,0,1-.828.828H2.484a.829.829,0,0,1-.828-.828V8.313h16.56Zm0,0" transform="translate(0)"/>
</svg>
