<svg xmlns="http://www.w3.org/2000/svg" width="20" height="22" viewBox="0 0 18 20"><g transform="translate(-236 -116)"><path d="M17,11Zm2-7H18V2H16V4H8V2H6V4H5A1.991,1.991,0,0,0,3.01,6L3,20a2,2,0,0,0,2,2H19a2.006,2.006,0,0,0,2-2V6A2.006,2.006,0,0,0,19,4Zm0,16H5V9H19Z" transform="translate(233 114)" fill="#505050"/><rect width="2" height="2" transform="translate(240 126)" fill="#12cb7a"/><rect width="2" height="2" transform="translate(244 126)" fill="#12cb7a"/><rect width="2" height="2" transform="translate(248 126)" fill="#12cb7a"/></g></svg>