<svg xmlns="http://www.w3.org/2000/svg" width="21.896" height="21.896" viewBox="0 0 21.896 21.896">
  <g id="edit" transform="translate(0)">
    <path id="Caminho_33" data-name="Caminho 33" d="M335.626,18.682l2.124-2.124h2.427l2.124,2.124V21.3l-2.124,2.124Z" transform="translate(-321.273 -15.85)" fill="#12cb7a"/>
    <g id="Grupo_25" data-name="Grupo 25" transform="translate(0)">
      <path id="Caminho_32" data-name="Caminho 32" d="M20.613,1.283a4.381,4.381,0,0,0-6.2,0L2.174,13.527a.855.855,0,0,0-.219.375L.032,20.811a.855.855,0,0,0,1.058,1.052L8,19.9a.855.855,0,0,0,.372-1.427L4.015,14.1,14.163,3.956l3.774,3.774-7.769,7.748a.855.855,0,0,0,1.208,1.211l9.236-9.211a4.381,4.381,0,0,0,0-6.2ZM6.132,18.652,2.088,19.8l1.133-4.069ZM19.4,6.268l-.255.254L15.373,2.747l.254-.254A2.67,2.67,0,0,1,19.4,6.268Z" transform="translate(0 0)" fill="#505050"/>
    </g>
  </g>
</svg>
