<svg xmlns="http://www.w3.org/2000/svg" width="30.855" height="28.38" viewBox="0 0 30.855 28.38">
  <g id="eraser" transform="translate(0 -0.47)">
    <path id="Caminho_11" data-name="Caminho 11" d="M176.527,24.213a4.164,4.164,0,0,1-1.229,2.966l-5.178,5.191L157.332,19.554l5.179-5.191a4.307,4.307,0,0,1,5.946.013l6.84,6.855a4.2,4.2,0,0,1,1.23,2.981Zm0,0" transform="translate(-146.323 -11.82)" fill="#12cb7a"/>
    <path id="Caminho_12" data-name="Caminho 12" d="M32.469,117.089l-6.3,6.3h-11.6l-4.02-4.016a4.212,4.212,0,0,1,.013-5.959l9.115-9.136Zm0,0" transform="translate(-8.672 -96.54)" fill="#eceff1"/>
    <path id="Caminho_13" data-name="Caminho 13" d="M28.737,376.251H1.12a1.12,1.12,0,1,1,0-2.239H28.737a1.12,1.12,0,1,1,0,2.239Zm0,0" transform="translate(0 -347.403)" fill="#505050"/>
    <path id="Caminho_14" data-name="Caminho 14" d="M15.167,28.848a1.12,1.12,0,0,1-.793-1.911L28.064,13.218a1.863,1.863,0,0,0,0-2.651l-7.33-7.346A1.851,1.851,0,0,0,18.1,3.21L2.793,18.555a1.867,1.867,0,0,0-.01,2.644l5.727,5.74a1.12,1.12,0,0,1-1.585,1.582L1.206,22.792a4.109,4.109,0,0,1,.01-5.827L16.509,1.639a4.192,4.192,0,0,1,5.819.01l7.319,7.336a4.1,4.1,0,0,1,0,5.816L15.958,28.52a1.109,1.109,0,0,1-.791.328Zm0,0" transform="translate(0 0)" fill="#505050"/>
    <path id="Caminho_15" data-name="Caminho 15" d="M164.828,105.595a1.116,1.116,0,0,1-.793-.329L152.48,93.686a1.12,1.12,0,0,1,1.585-1.583l11.554,11.58a1.12,1.12,0,0,1-.793,1.911Zm0,0" transform="translate(-141.507 -84.917)" fill="#505050"/>
  </g>
</svg>
