<svg xmlns="http://www.w3.org/2000/svg" width="600" height="600" viewBox="0 0 847.06 847.06">
  <g id="error_outline-24px" opacity="0.03">
    <path id="Caminho_103" data-name="Caminho 103" d="M0,0H847.06V847.06H0Z" fill="none"/>
    <path id="Caminho_104" data-name="Caminho 104" d="M319.647,460.824h70.588v70.588H319.647Zm0-282.353h70.588V390.236H319.647ZM354.589,2C159.765,2,2,160.118,2,354.941S159.765,707.883,354.589,707.883c195.177,0,353.294-158.118,353.294-352.942S549.765,2,354.589,2Zm.353,635.295c-156,0-282.353-126.353-282.353-282.353S198.941,72.588,354.941,72.588,637.295,198.941,637.295,354.941,510.942,637.295,354.941,637.295Z" transform="translate(68.588 68.588)" fill="#009e59"/>
  </g>
</svg>
