<svg xmlns="http://www.w3.org/2000/svg" width="20.024" height="13.653" viewBox="0 0 20.024 13.653">
  <g id="eye-white" transform="translate(0 -74.667)">
    <g id="Grupo_2" data-name="Grupo 2" transform="translate(0 74.667)">
      <g id="Grupo_1" data-name="Grupo 1" transform="translate(0 0)">
        <path id="Caminho_3" data-name="Caminho 3" d="M173.4,170.667a2.731,2.731,0,1,0,2.731,2.731A2.733,2.733,0,0,0,173.4,170.667Z" transform="translate(-163.386 -166.571)"/>
        <path id="Caminho_4" data-name="Caminho 4" d="M10.012,74.667A10.764,10.764,0,0,0,0,81.493a10.755,10.755,0,0,0,20.024,0A10.76,10.76,0,0,0,10.012,74.667Zm0,11.377a4.551,4.551,0,1,1,4.551-4.551A4.553,4.553,0,0,1,10.012,86.044Z" transform="translate(0 -74.667)"/>
      </g>
    </g>
  </g>
</svg>
