<svg xmlns="http://www.w3.org/2000/svg" width="82.129" height="55.997" viewBox="0 0 82.129 55.997">
  <g id="Grupo_79" data-name="Grupo 79" transform="translate(-1085 -394.003)" opacity="0.38">
    <path id="Caminho_51" data-name="Caminho 51" d="M181.866,170.667a11.2,11.2,0,1,0,11.2,11.2A11.208,11.208,0,0,0,181.866,170.667Z" transform="translate(944.044 240.135)" fill="#8a8a8a"/>
    <path id="Caminho_52" data-name="Caminho 52" d="M41.064,74.667A44.151,44.151,0,0,0,0,102.665a44.113,44.113,0,0,0,82.128,0A44.132,44.132,0,0,0,41.064,74.667Zm0,46.664A18.665,18.665,0,1,1,59.73,102.665,18.672,18.672,0,0,1,41.064,121.331Z" transform="translate(1085 319.336)" fill="#8a8a8a"/>
  </g>
</svg>
