<svg xmlns="http://www.w3.org/2000/svg" width="47" height="47" viewBox="0 0 47 47">
  <g id="gear" transform="translate(0 0)">
    <path id="Caminho_23" data-name="Caminho 23" d="M43.589,17.5,41.3,17.109c-.2-.568-.435-1.125-.69-1.667l1.35-1.888a4.088,4.088,0,0,0-.444-5.294L38.758,5.505a4.095,4.095,0,0,0-5.285-.444l-1.9,1.35a18.89,18.89,0,0,0-1.78-.734l-.379-2.246A4.1,4.1,0,0,0,25.362,0H21.471a4.1,4.1,0,0,0-4.056,3.428l-.4,2.334q-.844.308-1.661.7L13.5,5.121a4.108,4.108,0,0,0-5.3.442L5.432,8.315a4.1,4.1,0,0,0-.444,5.294l1.372,1.927c-.253.544-.48,1.1-.681,1.675l-2.246.379A4.1,4.1,0,0,0,0,21.647v3.891a4.1,4.1,0,0,0,3.428,4.056l2.334.4c.205.563.439,1.118.7,1.661L5.126,33.511A4.088,4.088,0,0,0,5.57,38.8l2.754,2.755A4.095,4.095,0,0,0,13.609,42l1.927-1.372c.506.235,1.031.451,1.57.645l.382,2.292A4.1,4.1,0,0,0,21.545,47h3.9A4.1,4.1,0,0,0,29.5,43.57l.389-2.292c.568-.2,1.125-.435,1.667-.69l1.882,1.345a4.107,4.107,0,0,0,5.3-.439l2.754-2.755a4.1,4.1,0,0,0,.444-5.294l-1.351-1.9c.262-.554.493-1.111.692-1.665l2.289-.382A4.1,4.1,0,0,0,47,25.445V21.562A4.06,4.06,0,0,0,43.589,17.5Zm.657,7.948a1.355,1.355,0,0,1-1.132,1.341l-3.036.506a1.484,1.484,0,0,0-1.18,1.032,16.1,16.1,0,0,1-1.1,2.654,1.484,1.484,0,0,0,.108,1.554l1.789,2.512a1.356,1.356,0,0,1-.148,1.75l-2.754,2.754a1.353,1.353,0,0,1-1.747.149l-2.5-1.788a1.483,1.483,0,0,0-1.561-.109,16.216,16.216,0,0,1-2.657,1.1A1.484,1.484,0,0,0,27.3,40.073l-.516,3.039a1.355,1.355,0,0,1-1.341,1.134h-3.9A1.355,1.355,0,0,1,20.2,43.113L19.7,40.078A1.485,1.485,0,0,0,18.676,38.9,16.118,16.118,0,0,1,16.1,37.843a1.486,1.486,0,0,0-1.552.109l-2.546,1.812a1.3,1.3,0,0,1-.776.249,1.329,1.329,0,0,1-.958-.4L7.513,36.853a1.345,1.345,0,0,1-.147-1.739L9.144,32.64a1.482,1.482,0,0,0,.106-1.573,15.747,15.747,0,0,1-1.114-2.643A1.487,1.487,0,0,0,6.965,27.4l-3.077-.525a1.356,1.356,0,0,1-1.134-1.341V21.647a1.356,1.356,0,0,1,1.135-1.341l3-.506a1.483,1.483,0,0,0,1.179-1.036A15.875,15.875,0,0,1,9.148,16.1a1.485,1.485,0,0,0-.109-1.552l-1.808-2.54a1.355,1.355,0,0,1,.146-1.748L10.141,7.51l.01-.01a1.318,1.318,0,0,1,.95-.392,1.334,1.334,0,0,1,.785.249L14.37,9.144a1.481,1.481,0,0,0,1.573.105,15.742,15.742,0,0,1,2.642-1.114,1.487,1.487,0,0,0,1.02-1.171l.525-3.077a1.355,1.355,0,0,1,1.341-1.134h3.891A1.356,1.356,0,0,1,26.7,3.889l.506,3a1.483,1.483,0,0,0,1.037,1.178A16.027,16.027,0,0,1,31,9.2a1.485,1.485,0,0,0,1.556-.107L35.077,7.3a1.3,1.3,0,0,1,.776-.249,1.33,1.33,0,0,1,.958.4l2.759,2.759a1.345,1.345,0,0,1,.145,1.742l-1.79,2.5a1.485,1.485,0,0,0-.107,1.558,16.208,16.208,0,0,1,1.1,2.657A1.484,1.484,0,0,0,40.092,19.7l3.036.515h0a1.321,1.321,0,0,1,1.115,1.322Zm0,0"/>
    <path id="Caminho_24" data-name="Caminho 24" d="M165.591,156.453a9.138,9.138,0,1,0,9.138,9.138A9.148,9.148,0,0,0,165.591,156.453Zm0,15.522a6.384,6.384,0,1,1,6.384-6.384A6.391,6.391,0,0,1,165.591,171.975Zm0,0" transform="translate(-142.091 -142.091)"/>
  </g>
</svg>
