<svg xmlns="http://www.w3.org/2000/svg" width="40.214" height="40.214" viewBox="0 0 40.214 40.214">
  <g id="logout" transform="translate(39.214 39.214) rotate(180)">
    <g id="Grupo_20" data-name="Grupo 20" transform="translate(-1 -1)">
      <g id="Grupo_19" data-name="Grupo 19">
        <path id="Caminho_25" data-name="Caminho 25" d="M24.134,24.134a1.676,1.676,0,0,0-1.676,1.676V35.863H2.351V2.351H22.458V12.4a1.676,1.676,0,0,0,3.351,0V.676A1.676,1.676,0,0,0,24.134-1H.676A1.676,1.676,0,0,0-1,.676V37.538A1.676,1.676,0,0,0,.676,39.214H24.134a1.676,1.676,0,0,0,1.676-1.676V25.809A1.676,1.676,0,0,0,24.134,24.134Z" transform="translate(1 1)"/>
        <path id="Caminho_26" data-name="Caminho 26" d="M255.07,157.774c.016-.019.03-.04.045-.06s.036-.047.053-.072.03-.049.044-.073.027-.044.04-.067.025-.051.037-.076.023-.048.034-.072.019-.05.027-.075.02-.053.028-.08.013-.051.02-.076.015-.055.02-.083.009-.059.014-.089.008-.048.011-.073a1.678,1.678,0,0,0,0-.331c0-.025-.007-.049-.011-.073s-.008-.059-.014-.089-.013-.055-.02-.083-.012-.051-.02-.076-.018-.053-.028-.08-.017-.05-.027-.075-.022-.048-.034-.072-.023-.051-.037-.076-.026-.045-.04-.067-.029-.049-.044-.073-.035-.048-.053-.072-.029-.041-.045-.06c-.034-.042-.071-.082-.109-.121l0,0-6.7-6.7a1.676,1.676,0,0,0-2.37,2.37l3.842,3.842H235.343a1.676,1.676,0,1,0,0,3.351h14.386l-3.842,3.842a1.676,1.676,0,0,0,2.37,2.37l6.7-6.7,0,0Q255.018,157.838,255.07,157.774Z" transform="translate(-215.236 -136.606)"/>
      </g>
    </g>
  </g>
</svg>
