<svg id="plus" xmlns="http://www.w3.org/2000/svg" width="21.865" height="21.865" viewBox="0 0 21.865 21.865">
  <g id="Grupo_38" data-name="Grupo 38">
    <g id="Grupo_37" data-name="Grupo 37">
      <path id="Caminho_37" data-name="Caminho 37" d="M10.933,0A10.933,10.933,0,1,0,21.865,10.933,10.945,10.945,0,0,0,10.933,0Zm0,20.172a9.239,9.239,0,1,1,9.239-9.239A9.25,9.25,0,0,1,10.933,20.172Z" fill="#009e59"/>
    </g>
  </g>
  <g id="Grupo_40" data-name="Grupo 40" transform="translate(5.852 5.775)">
    <g id="Grupo_39" data-name="Grupo 39">
      <path id="Caminho_38" data-name="Caminho 38" d="M146.337,139.472H142.95v-3.387a.847.847,0,1,0-1.694,0v3.387h-3.387a.847.847,0,1,0,0,1.694h3.387v3.387a.847.847,0,1,0,1.694,0v-3.387h3.387a.847.847,0,1,0,0-1.694Z" transform="translate(-137.022 -135.238)" fill="#009e59"/>
    </g>
  </g>
</svg>
