<svg xmlns="http://www.w3.org/2000/svg" xmlns:xlink="http://www.w3.org/1999/xlink" width="50" height="51" viewBox="0 0 50 51">
  <defs>
    <filter id="Ret창ngulo_161" x="0" y="0" width="50" height="51" filterUnits="userSpaceOnUse">
      <feOffset dy="3" input="SourceAlpha"/>
      <feGaussianBlur stdDeviation="3" result="blur"/>
      <feFlood flood-opacity="0.161"/>
      <feComposite operator="in" in2="blur"/>
      <feComposite in="SourceGraphic"/>
    </filter>
  </defs>
  <g id="Grupo_242" data-name="Grupo 242" transform="translate(-1253 -255)">
    <g transform="matrix(1, 0, 0, 1, 1253, 255)" filter="url(#Ret창ngulo_161)">
      <path id="Ret창ngulo_161-2" data-name="Ret창ngulo 161" d="M0,0H32a0,0,0,0,1,0,0V30a3,3,0,0,1-3,3H3a3,3,0,0,1-3-3V0A0,0,0,0,1,0,0Z" transform="translate(9 6)" fill="#009e59"/>
    </g>
    <path id="Caminho_71" data-name="Caminho 71" d="M17.264,7.632h-.947V5.737a4.737,4.737,0,1,0-9.474,0V7.632H5.895A1.9,1.9,0,0,0,4,9.527V19A1.9,1.9,0,0,0,5.895,20.9H17.264A1.9,1.9,0,0,0,19.159,19V9.527A1.9,1.9,0,0,0,17.264,7.632Zm-5.684,8.527a1.895,1.895,0,1,1,1.895-1.895A1.9,1.9,0,0,1,11.579,16.159Zm2.937-8.527H8.642V5.737a2.937,2.937,0,0,1,5.874,0Z" transform="translate(1266.79 265.209)" fill="#fff"/>
  </g>
</svg>
