<svg xmlns="http://www.w3.org/2000/svg" width="42.041" height="38.986" viewBox="0 0 42.041 38.986">
  <path id="warning" d="M21.021,32.5a1.642,1.642,0,1,1,0-3.284h0a1.642,1.642,0,1,1,0,3.284Zm1.641-7.39V14.929a1.642,1.642,0,1,0-3.284,0V25.111a1.642,1.642,0,0,0,3.284,0ZM42.04,36.643V36.4a2.35,2.35,0,0,0-.289-1.127L38.9,30.069a1.642,1.642,0,0,0-2.88,1.579L38.241,35.7H3.8L21.02,4.3,32.28,24.833a1.642,1.642,0,1,0,2.88-1.579L23.075,1.218a2.344,2.344,0,0,0-4.111,0L.288,35.274A2.35,2.35,0,0,0,0,36.4v.242a2.347,2.347,0,0,0,2.344,2.344H39.7a2.347,2.347,0,0,0,2.344-2.344Zm0,0" transform="translate(0 -0.001)"/>
</svg>
